<mxfile host="app.diagrams.net" modified="2024-05-26T22:01:49.461Z" agent="Mozilla/5.0 (X11; Ubuntu; Linux x86_64; rv:122.0) Gecko/20100101 Firefox/122.0" etag="rFO6xQZD9n8zahsmMqxj" version="24.4.8" type="device">
  <diagram name="Seite-1" id="5VkFBL_KUkzAKhLpReOD">
    <mxGraphModel dx="1195" dy="659" grid="1" gridSize="10" guides="1" tooltips="1" connect="1" arrows="1" fold="1" page="1" pageScale="1" pageWidth="827" pageHeight="1169" math="0" shadow="0">
      <root>
        <mxCell id="0" />
        <mxCell id="1" parent="0" />
        <mxCell id="HfHesFzbAQrmcc15ruks-3" value="" style="rounded=0;whiteSpace=wrap;html=1;fillColor=#bac8d3;strokeColor=default;" vertex="1" parent="1">
          <mxGeometry x="214" y="400" width="520" height="480" as="geometry" />
        </mxCell>
        <mxCell id="HfHesFzbAQrmcc15ruks-4" style="rounded=0;orthogonalLoop=1;jettySize=auto;html=1;exitX=1;exitY=0.3333333333333333;exitDx=0;exitDy=0;exitPerimeter=0;entryX=0;entryY=0.5;entryDx=0;entryDy=0;endArrow=none;endFill=0;" edge="1" parent="1" source="HfHesFzbAQrmcc15ruks-6" target="HfHesFzbAQrmcc15ruks-23">
          <mxGeometry relative="1" as="geometry">
            <mxPoint x="543.9999999999998" y="505" as="targetPoint" />
          </mxGeometry>
        </mxCell>
        <mxCell id="HfHesFzbAQrmcc15ruks-5" style="rounded=0;orthogonalLoop=1;jettySize=auto;html=1;exitX=1;exitY=0.3333333333333333;exitDx=0;exitDy=0;exitPerimeter=0;endArrow=none;endFill=0;entryX=0;entryY=0.5;entryDx=0;entryDy=0;" edge="1" parent="1" source="HfHesFzbAQrmcc15ruks-6" target="HfHesFzbAQrmcc15ruks-24">
          <mxGeometry relative="1" as="geometry">
            <mxPoint x="484.00000000000205" y="555" as="targetPoint" />
          </mxGeometry>
        </mxCell>
        <mxCell id="HfHesFzbAQrmcc15ruks-6" value="Akteur" style="shape=umlActor;verticalLabelPosition=bottom;verticalAlign=top;html=1;outlineConnect=0;" vertex="1" parent="1">
          <mxGeometry x="94" y="615" width="30" height="60" as="geometry" />
        </mxCell>
        <mxCell id="HfHesFzbAQrmcc15ruks-9" style="edgeStyle=orthogonalEdgeStyle;rounded=0;orthogonalLoop=1;jettySize=auto;html=1;exitX=0.5;exitY=1;exitDx=0;exitDy=0;" edge="1" parent="1">
          <mxGeometry relative="1" as="geometry">
            <mxPoint x="543.9999999999998" y="580" as="sourcePoint" />
            <mxPoint x="543.9999999999998" y="580" as="targetPoint" />
          </mxGeometry>
        </mxCell>
        <mxCell id="HfHesFzbAQrmcc15ruks-11" value="Paket erzeugen" style="ellipse;whiteSpace=wrap;html=1;" vertex="1" parent="1">
          <mxGeometry x="544" y="505" width="120" height="50" as="geometry" />
        </mxCell>
        <mxCell id="HfHesFzbAQrmcc15ruks-13" value="" style="endArrow=none;html=1;rounded=0;exitX=1;exitY=0.3333333333333333;exitDx=0;exitDy=0;exitPerimeter=0;entryX=0;entryY=0.5;entryDx=0;entryDy=0;" edge="1" parent="1" source="HfHesFzbAQrmcc15ruks-6" target="HfHesFzbAQrmcc15ruks-11">
          <mxGeometry width="50" height="50" relative="1" as="geometry">
            <mxPoint x="344" y="680" as="sourcePoint" />
            <mxPoint x="394" y="630" as="targetPoint" />
          </mxGeometry>
        </mxCell>
        <mxCell id="HfHesFzbAQrmcc15ruks-14" value="" style="endArrow=none;html=1;rounded=0;exitX=1;exitY=0.3333333333333333;exitDx=0;exitDy=0;exitPerimeter=0;entryX=0;entryY=0.5;entryDx=0;entryDy=0;" edge="1" parent="1" source="HfHesFzbAQrmcc15ruks-6" target="HfHesFzbAQrmcc15ruks-22">
          <mxGeometry width="50" height="50" relative="1" as="geometry">
            <mxPoint x="184" y="590" as="sourcePoint" />
            <mxPoint x="328" y="435" as="targetPoint" />
          </mxGeometry>
        </mxCell>
        <mxCell id="HfHesFzbAQrmcc15ruks-15" value="" style="endArrow=none;html=1;rounded=0;exitX=1;exitY=0.3333333333333333;exitDx=0;exitDy=0;exitPerimeter=0;entryX=0;entryY=0.5;entryDx=0;entryDy=0;" edge="1" parent="1" source="HfHesFzbAQrmcc15ruks-6" target="HfHesFzbAQrmcc15ruks-25">
          <mxGeometry width="50" height="50" relative="1" as="geometry">
            <mxPoint x="444" y="605" as="sourcePoint" />
            <mxPoint x="354" y="605" as="targetPoint" />
          </mxGeometry>
        </mxCell>
        <mxCell id="HfHesFzbAQrmcc15ruks-22" value="&lt;div&gt;Paketvorlage&lt;/div&gt;&lt;div&gt;anlegen&lt;br&gt;&lt;/div&gt;" style="ellipse;whiteSpace=wrap;html=1;" vertex="1" parent="1">
          <mxGeometry x="408" y="410" width="120" height="50" as="geometry" />
        </mxCell>
        <mxCell id="HfHesFzbAQrmcc15ruks-23" value="Paketvorlage bearbeiten" style="ellipse;whiteSpace=wrap;html=1;" vertex="1" parent="1">
          <mxGeometry x="554" y="430" width="120" height="50" as="geometry" />
        </mxCell>
        <mxCell id="HfHesFzbAQrmcc15ruks-24" value="Paket anordnen" style="ellipse;whiteSpace=wrap;html=1;" vertex="1" parent="1">
          <mxGeometry x="604" y="565" width="120" height="50" as="geometry" />
        </mxCell>
        <mxCell id="HfHesFzbAQrmcc15ruks-25" value="Paket löschen" style="ellipse;whiteSpace=wrap;html=1;" vertex="1" parent="1">
          <mxGeometry x="544" y="615" width="120" height="50" as="geometry" />
        </mxCell>
        <mxCell id="HfHesFzbAQrmcc15ruks-26" value="Regal hinzufügen" style="ellipse;whiteSpace=wrap;html=1;" vertex="1" parent="1">
          <mxGeometry x="288" y="690" width="120" height="50" as="geometry" />
        </mxCell>
        <mxCell id="HfHesFzbAQrmcc15ruks-27" value="&lt;div&gt;Bretter und&amp;nbsp;&lt;/div&gt;&lt;div&gt;Stützen erzeugen&lt;/div&gt;" style="ellipse;whiteSpace=wrap;html=1;" vertex="1" parent="1">
          <mxGeometry x="348" y="810" width="120" height="50" as="geometry" />
        </mxCell>
        <mxCell id="HfHesFzbAQrmcc15ruks-28" value="&lt;div&gt;Bretter und&amp;nbsp;&lt;/div&gt;&lt;div&gt;Stützen anpassen&lt;/div&gt;" style="ellipse;whiteSpace=wrap;html=1;" vertex="1" parent="1">
          <mxGeometry x="474" y="800" width="120" height="50" as="geometry" />
        </mxCell>
        <mxCell id="HfHesFzbAQrmcc15ruks-29" value="&lt;div&gt;Bretter und&amp;nbsp;&lt;/div&gt;&lt;div&gt;Stützen bewegen&lt;/div&gt;" style="ellipse;whiteSpace=wrap;html=1;" vertex="1" parent="1">
          <mxGeometry x="604" y="800" width="120" height="50" as="geometry" />
        </mxCell>
        <mxCell id="HfHesFzbAQrmcc15ruks-30" value="Regal bearbeiten" style="ellipse;whiteSpace=wrap;html=1;" vertex="1" parent="1">
          <mxGeometry x="528" y="675" width="120" height="50" as="geometry" />
        </mxCell>
        <mxCell id="HfHesFzbAQrmcc15ruks-31" value="Bretter- und Stützenvorlagen erzeugen" style="ellipse;whiteSpace=wrap;html=1;" vertex="1" parent="1">
          <mxGeometry x="224" y="810" width="120" height="50" as="geometry" />
        </mxCell>
        <mxCell id="HfHesFzbAQrmcc15ruks-32" value="&lt;div&gt;Inventarliste&lt;/div&gt;&lt;div&gt;anzeigen&lt;br&gt;&lt;/div&gt;" style="ellipse;whiteSpace=wrap;html=1;" vertex="1" parent="1">
          <mxGeometry x="254" y="410" width="120" height="50" as="geometry" />
        </mxCell>
        <mxCell id="HfHesFzbAQrmcc15ruks-33" value="" style="endArrow=none;html=1;rounded=0;entryX=0;entryY=0.5;entryDx=0;entryDy=0;exitX=1;exitY=0.3333333333333333;exitDx=0;exitDy=0;exitPerimeter=0;" edge="1" parent="1" source="HfHesFzbAQrmcc15ruks-6" target="HfHesFzbAQrmcc15ruks-32">
          <mxGeometry width="50" height="50" relative="1" as="geometry">
            <mxPoint x="124" y="650" as="sourcePoint" />
            <mxPoint x="304" y="450" as="targetPoint" />
          </mxGeometry>
        </mxCell>
        <mxCell id="HfHesFzbAQrmcc15ruks-35" value="" style="endArrow=classic;dashed=1;html=1;rounded=0;exitX=0;exitY=0;exitDx=0;exitDy=0;endFill=1;strokeColor=#FF3333;entryX=0.5;entryY=1;entryDx=0;entryDy=0;" edge="1" parent="1" target="HfHesFzbAQrmcc15ruks-26">
          <mxGeometry width="50" height="50" relative="1" as="geometry">
            <mxPoint x="281" y="812" as="sourcePoint" />
            <mxPoint x="244" y="665" as="targetPoint" />
          </mxGeometry>
        </mxCell>
        <mxCell id="HfHesFzbAQrmcc15ruks-36" value="include" style="edgeLabel;html=1;align=center;verticalAlign=middle;resizable=0;points=[];labelBackgroundColor=none;fontColor=#FF0000;" vertex="1" connectable="0" parent="HfHesFzbAQrmcc15ruks-35">
          <mxGeometry x="0.2811" y="2" relative="1" as="geometry">
            <mxPoint x="5" y="19" as="offset" />
          </mxGeometry>
        </mxCell>
        <mxCell id="HfHesFzbAQrmcc15ruks-37" value="" style="endArrow=classic;dashed=1;html=1;rounded=0;endFill=1;strokeColor=#FF3333;entryX=0.5;entryY=1;entryDx=0;entryDy=0;exitX=0.5;exitY=0;exitDx=0;exitDy=0;" edge="1" parent="1" source="HfHesFzbAQrmcc15ruks-27" target="HfHesFzbAQrmcc15ruks-26">
          <mxGeometry width="50" height="50" relative="1" as="geometry">
            <mxPoint x="367" y="810" as="sourcePoint" />
            <mxPoint x="434" y="738" as="targetPoint" />
          </mxGeometry>
        </mxCell>
        <mxCell id="HfHesFzbAQrmcc15ruks-38" value="include" style="edgeLabel;html=1;align=center;verticalAlign=middle;resizable=0;points=[];labelBackgroundColor=none;fontColor=#FF0000;" vertex="1" connectable="0" parent="HfHesFzbAQrmcc15ruks-37">
          <mxGeometry x="0.2811" y="2" relative="1" as="geometry">
            <mxPoint x="5" y="19" as="offset" />
          </mxGeometry>
        </mxCell>
        <mxCell id="HfHesFzbAQrmcc15ruks-40" value="" style="endArrow=classic;dashed=1;html=1;rounded=0;endFill=1;strokeColor=#FF3333;entryX=0.5;entryY=1;entryDx=0;entryDy=0;exitX=0.5;exitY=0;exitDx=0;exitDy=0;" edge="1" parent="1" source="HfHesFzbAQrmcc15ruks-28" target="HfHesFzbAQrmcc15ruks-30">
          <mxGeometry width="50" height="50" relative="1" as="geometry">
            <mxPoint x="544" y="780" as="sourcePoint" />
            <mxPoint x="484" y="710" as="targetPoint" />
          </mxGeometry>
        </mxCell>
        <mxCell id="HfHesFzbAQrmcc15ruks-41" value="include" style="edgeLabel;html=1;align=center;verticalAlign=middle;resizable=0;points=[];labelBackgroundColor=none;fontColor=#FF0000;" vertex="1" connectable="0" parent="HfHesFzbAQrmcc15ruks-40">
          <mxGeometry x="0.2811" y="2" relative="1" as="geometry">
            <mxPoint x="5" y="19" as="offset" />
          </mxGeometry>
        </mxCell>
        <mxCell id="HfHesFzbAQrmcc15ruks-42" value="" style="endArrow=classic;dashed=1;html=1;rounded=0;endFill=1;strokeColor=#FF3333;entryX=0.5;entryY=1;entryDx=0;entryDy=0;exitX=0.5;exitY=0;exitDx=0;exitDy=0;" edge="1" parent="1" source="HfHesFzbAQrmcc15ruks-29" target="HfHesFzbAQrmcc15ruks-30">
          <mxGeometry width="50" height="50" relative="1" as="geometry">
            <mxPoint x="544" y="810" as="sourcePoint" />
            <mxPoint x="598" y="735" as="targetPoint" />
          </mxGeometry>
        </mxCell>
        <mxCell id="HfHesFzbAQrmcc15ruks-43" value="include" style="edgeLabel;html=1;align=center;verticalAlign=middle;resizable=0;points=[];labelBackgroundColor=none;fontColor=#FF0000;" vertex="1" connectable="0" parent="HfHesFzbAQrmcc15ruks-42">
          <mxGeometry x="0.2811" y="2" relative="1" as="geometry">
            <mxPoint x="5" y="19" as="offset" />
          </mxGeometry>
        </mxCell>
        <mxCell id="HfHesFzbAQrmcc15ruks-44" value="" style="endArrow=classic;dashed=1;html=1;rounded=0;endFill=1;strokeColor=#FF3333;entryX=1;entryY=0.5;entryDx=0;entryDy=0;exitX=0.5;exitY=0;exitDx=0;exitDy=0;" edge="1" parent="1" source="HfHesFzbAQrmcc15ruks-28" target="HfHesFzbAQrmcc15ruks-26">
          <mxGeometry width="50" height="50" relative="1" as="geometry">
            <mxPoint x="544" y="810" as="sourcePoint" />
            <mxPoint x="598" y="735" as="targetPoint" />
          </mxGeometry>
        </mxCell>
        <mxCell id="HfHesFzbAQrmcc15ruks-45" value="include" style="edgeLabel;html=1;align=center;verticalAlign=middle;resizable=0;points=[];labelBackgroundColor=none;fontColor=#FF0000;" vertex="1" connectable="0" parent="HfHesFzbAQrmcc15ruks-44">
          <mxGeometry x="0.2811" y="2" relative="1" as="geometry">
            <mxPoint x="5" y="19" as="offset" />
          </mxGeometry>
        </mxCell>
        <mxCell id="HfHesFzbAQrmcc15ruks-46" value="" style="endArrow=classic;dashed=1;html=1;rounded=0;endFill=1;strokeColor=#FF3333;entryX=1;entryY=0.5;entryDx=0;entryDy=0;exitX=0.5;exitY=0;exitDx=0;exitDy=0;" edge="1" parent="1" source="HfHesFzbAQrmcc15ruks-29" target="HfHesFzbAQrmcc15ruks-26">
          <mxGeometry width="50" height="50" relative="1" as="geometry">
            <mxPoint x="674" y="810" as="sourcePoint" />
            <mxPoint x="598" y="735" as="targetPoint" />
          </mxGeometry>
        </mxCell>
        <mxCell id="HfHesFzbAQrmcc15ruks-47" value="include" style="edgeLabel;html=1;align=center;verticalAlign=middle;resizable=0;points=[];labelBackgroundColor=none;fontColor=#FF0000;" vertex="1" connectable="0" parent="HfHesFzbAQrmcc15ruks-46">
          <mxGeometry x="0.2811" y="2" relative="1" as="geometry">
            <mxPoint x="5" y="19" as="offset" />
          </mxGeometry>
        </mxCell>
        <mxCell id="HfHesFzbAQrmcc15ruks-48" value="" style="endArrow=classic;dashed=1;html=1;rounded=0;endFill=1;strokeColor=#FF3333;entryX=0.216;entryY=0.911;entryDx=0;entryDy=0;exitX=0.5;exitY=0;exitDx=0;exitDy=0;entryPerimeter=0;" edge="1" parent="1" source="HfHesFzbAQrmcc15ruks-27" target="HfHesFzbAQrmcc15ruks-30">
          <mxGeometry width="50" height="50" relative="1" as="geometry">
            <mxPoint x="418" y="820" as="sourcePoint" />
            <mxPoint x="358" y="750" as="targetPoint" />
          </mxGeometry>
        </mxCell>
        <mxCell id="HfHesFzbAQrmcc15ruks-50" value="" style="endArrow=classic;dashed=1;html=1;rounded=0;endFill=1;strokeColor=#FF3333;entryX=0;entryY=0.5;entryDx=0;entryDy=0;" edge="1" parent="1" target="HfHesFzbAQrmcc15ruks-30">
          <mxGeometry width="50" height="50" relative="1" as="geometry">
            <mxPoint x="284" y="810" as="sourcePoint" />
            <mxPoint x="358" y="750" as="targetPoint" />
          </mxGeometry>
        </mxCell>
        <mxCell id="HfHesFzbAQrmcc15ruks-51" value="include" style="edgeLabel;html=1;align=center;verticalAlign=middle;resizable=0;points=[];labelBackgroundColor=none;fontColor=#FF0000;" vertex="1" connectable="0" parent="HfHesFzbAQrmcc15ruks-50">
          <mxGeometry x="0.2811" y="2" relative="1" as="geometry">
            <mxPoint x="5" y="19" as="offset" />
          </mxGeometry>
        </mxCell>
        <mxCell id="HfHesFzbAQrmcc15ruks-52" value="" style="endArrow=none;html=1;rounded=0;entryX=0;entryY=0.5;entryDx=0;entryDy=0;exitX=1;exitY=0.3333333333333333;exitDx=0;exitDy=0;exitPerimeter=0;" edge="1" parent="1" source="HfHesFzbAQrmcc15ruks-6" target="HfHesFzbAQrmcc15ruks-26">
          <mxGeometry width="50" height="50" relative="1" as="geometry">
            <mxPoint x="124" y="640" as="sourcePoint" />
            <mxPoint x="554" y="650" as="targetPoint" />
          </mxGeometry>
        </mxCell>
        <mxCell id="HfHesFzbAQrmcc15ruks-53" value="" style="endArrow=none;html=1;rounded=0;entryX=0;entryY=0;entryDx=0;entryDy=0;exitX=1;exitY=0.3333333333333333;exitDx=0;exitDy=0;exitPerimeter=0;" edge="1" parent="1" source="HfHesFzbAQrmcc15ruks-6" target="HfHesFzbAQrmcc15ruks-30">
          <mxGeometry width="50" height="50" relative="1" as="geometry">
            <mxPoint x="134" y="645" as="sourcePoint" />
            <mxPoint x="298" y="725" as="targetPoint" />
          </mxGeometry>
        </mxCell>
      </root>
    </mxGraphModel>
  </diagram>
</mxfile>
